G04 #@! TF.FileFunction,Copper,L1,Top,Signal*
%FSLAX46Y46*%
G04 Gerber Fmt 4.6, Leading zero omitted, Abs format (unit mm)*
G04 Created by KiCad (PCBNEW 0.201505220134+5676~23~ubuntu14.04.1-product) date Mon 25 May 2015 02:30:49 PM EDT*
%MOMM*%
G01*
G04 APERTURE LIST*
%ADD10C,0.100000*%
%ADD11R,1.250000X1.500000*%
%ADD12R,1.500000X1.250000*%
%ADD13R,2.032000X2.032000*%
%ADD14O,2.032000X2.032000*%
%ADD15R,1.300000X1.500000*%
%ADD16R,1.500000X1.300000*%
%ADD17R,2.000000X1.700000*%
%ADD18R,0.650000X1.060000*%
%ADD19R,1.500000X0.600000*%
%ADD20R,2.032000X1.727200*%
%ADD21O,2.032000X1.727200*%
%ADD22R,2.235200X2.235200*%
%ADD23C,2.000000*%
%ADD24C,0.889000*%
%ADD25C,0.685800*%
%ADD26C,0.609600*%
%ADD27C,0.254000*%
G04 APERTURE END LIST*
D10*
D11*
X101346000Y-74442000D03*
X101346000Y-76942000D03*
D12*
X84816000Y-73914000D03*
X82316000Y-73914000D03*
X87356000Y-110744000D03*
X84856000Y-110744000D03*
X86086000Y-84328000D03*
X83586000Y-84328000D03*
D13*
X97282000Y-69088000D03*
D14*
X99822000Y-69088000D03*
D15*
X94234000Y-71708000D03*
X94234000Y-69008000D03*
D16*
X92790000Y-80010000D03*
X90090000Y-80010000D03*
X90090000Y-77978000D03*
X92790000Y-77978000D03*
D17*
X84804000Y-76200000D03*
X80804000Y-76200000D03*
X90392000Y-99314000D03*
X86392000Y-99314000D03*
X87344000Y-113538000D03*
X83344000Y-113538000D03*
X87598000Y-86614000D03*
X83598000Y-86614000D03*
D18*
X99248000Y-72306000D03*
X98298000Y-72306000D03*
X97348000Y-72306000D03*
X97348000Y-74506000D03*
X99248000Y-74506000D03*
D19*
X92804000Y-86106000D03*
X92804000Y-87376000D03*
X92804000Y-88646000D03*
X92804000Y-89916000D03*
X92804000Y-91186000D03*
X92804000Y-92456000D03*
X92804000Y-93726000D03*
X98204000Y-93726000D03*
X98204000Y-92456000D03*
X98204000Y-91186000D03*
X98204000Y-89916000D03*
X98204000Y-88646000D03*
X98204000Y-87376000D03*
X98204000Y-86106000D03*
X98458000Y-107696000D03*
X98458000Y-106426000D03*
X98458000Y-105156000D03*
X98458000Y-103886000D03*
X98458000Y-102616000D03*
X98458000Y-101346000D03*
X98458000Y-100076000D03*
X93058000Y-100076000D03*
X93058000Y-101346000D03*
X93058000Y-102616000D03*
X93058000Y-103886000D03*
X93058000Y-105156000D03*
X93058000Y-106426000D03*
X93058000Y-107696000D03*
D12*
X90404000Y-97028000D03*
X87904000Y-97028000D03*
D20*
X101600000Y-105156000D03*
D21*
X101600000Y-102616000D03*
X101600000Y-100076000D03*
X101600000Y-97536000D03*
X101600000Y-94996000D03*
D22*
X88646000Y-69596000D03*
X101092000Y-84328000D03*
X97790000Y-80772000D03*
X88392000Y-116586000D03*
X80010000Y-69596000D03*
X80518000Y-94996000D03*
X80772000Y-107950000D03*
X80010000Y-82296000D03*
D23*
X99020000Y-114808000D03*
X96520000Y-114808000D03*
X94020000Y-114808000D03*
D24*
X93218000Y-110236000D03*
X102362000Y-92964000D03*
X101346000Y-78994000D03*
X94742000Y-77978000D03*
X94996000Y-105156000D03*
X100584000Y-89916000D03*
X92202000Y-113538000D03*
X102108000Y-72644000D03*
X99314000Y-76200000D03*
X94742000Y-80010000D03*
X94742000Y-89916000D03*
X96266000Y-105156000D03*
D25*
X85852000Y-71120000D03*
X84328000Y-71882000D03*
X92964000Y-98044000D03*
X86106000Y-97536000D03*
X86360000Y-107188000D03*
X86106000Y-109220000D03*
X96774000Y-102108000D03*
X90170000Y-86106000D03*
X85090000Y-82804000D03*
X86868000Y-89154000D03*
D24*
X87884000Y-77978000D03*
X90170000Y-75946000D03*
X87884000Y-80010000D03*
X90170000Y-81788000D03*
X78994000Y-85090000D03*
X78740000Y-72390000D03*
X78994000Y-110236000D03*
X78994000Y-97536000D03*
X90932000Y-88646000D03*
X90678000Y-91186000D03*
X95504000Y-88392000D03*
X95504000Y-93472000D03*
D25*
X95758000Y-101346000D03*
X96520000Y-107696000D03*
X93218000Y-108966000D03*
X96520000Y-106172000D03*
D26*
X99248000Y-71440000D02*
X99822000Y-70866000D01*
X99822000Y-70866000D02*
X99822000Y-69088000D01*
X99248000Y-72306000D02*
X99248000Y-71440000D01*
X101600000Y-94996000D02*
X101600000Y-93726000D01*
X101600000Y-93726000D02*
X102362000Y-92964000D01*
X97282000Y-70104000D02*
X97282000Y-69088000D01*
X98298000Y-71120000D02*
X97282000Y-70104000D01*
X98298000Y-72306000D02*
X98298000Y-71120000D01*
X101346000Y-76942000D02*
X101346000Y-78994000D01*
X97202000Y-69008000D02*
X97282000Y-69088000D01*
X92790000Y-77978000D02*
X94742000Y-77978000D01*
X93058000Y-105156000D02*
X94996000Y-105156000D01*
X100584000Y-89916000D02*
X98204000Y-89916000D01*
X97202000Y-69008000D02*
X97282000Y-69088000D01*
X94234000Y-69008000D02*
X97202000Y-69008000D01*
X99312000Y-74442000D02*
X99248000Y-74506000D01*
X101346000Y-74442000D02*
X99312000Y-74442000D01*
X101346000Y-73406000D02*
X102108000Y-72644000D01*
X101346000Y-74442000D02*
X101346000Y-73406000D01*
X99248000Y-76134000D02*
X99314000Y-76200000D01*
X99248000Y-74506000D02*
X99248000Y-76134000D01*
X92790000Y-80010000D02*
X94742000Y-80010000D01*
X92804000Y-89916000D02*
X94742000Y-89916000D01*
X98458000Y-105156000D02*
X96266000Y-105156000D01*
D27*
X101600000Y-88138000D02*
X102362000Y-88900000D01*
X98204000Y-86106000D02*
X99568000Y-86106000D01*
X101600000Y-88138000D02*
X99568000Y-86106000D01*
X98458000Y-98392000D02*
X98458000Y-100076000D01*
X99568000Y-97282000D02*
X98458000Y-98392000D01*
X99568000Y-94234000D02*
X99568000Y-97282000D01*
X102362000Y-91440000D02*
X99568000Y-94234000D01*
X102362000Y-88900000D02*
X102362000Y-91440000D01*
X84816000Y-76188000D02*
X84804000Y-76200000D01*
X84816000Y-73914000D02*
X84816000Y-76188000D01*
X84804000Y-79724000D02*
X88138000Y-83058000D01*
X88138000Y-83058000D02*
X97028000Y-83058000D01*
X97028000Y-83058000D02*
X98204000Y-84234000D01*
X98204000Y-84234000D02*
X98204000Y-86106000D01*
X84804000Y-76200000D02*
X84804000Y-79724000D01*
X85852000Y-71120000D02*
X86360000Y-71628000D01*
X86360000Y-71628000D02*
X86360000Y-73660000D01*
X86360000Y-73660000D02*
X86106000Y-73914000D01*
X86106000Y-73914000D02*
X84816000Y-73914000D01*
X82316000Y-74688000D02*
X80804000Y-76200000D01*
X82316000Y-73914000D02*
X82316000Y-74688000D01*
X80804000Y-77248000D02*
X82550000Y-78994000D01*
X82550000Y-78994000D02*
X83058000Y-78994000D01*
X83058000Y-78994000D02*
X87884000Y-83820000D01*
X87884000Y-83820000D02*
X95504000Y-83820000D01*
X95504000Y-83820000D02*
X96774000Y-85090000D01*
X96774000Y-85090000D02*
X96774000Y-86868000D01*
X96774000Y-86868000D02*
X97282000Y-87376000D01*
X97282000Y-87376000D02*
X98204000Y-87376000D01*
X80804000Y-76200000D02*
X80804000Y-77248000D01*
X82550000Y-73680000D02*
X82316000Y-73914000D01*
X84328000Y-71882000D02*
X83058000Y-71882000D01*
X83058000Y-71882000D02*
X82550000Y-72390000D01*
X82550000Y-72390000D02*
X82550000Y-73680000D01*
X93058000Y-101346000D02*
X90932000Y-101346000D01*
X90392000Y-100806000D02*
X90392000Y-99314000D01*
X90932000Y-101346000D02*
X90392000Y-100806000D01*
X90392000Y-97040000D02*
X90404000Y-97028000D01*
X90392000Y-99314000D02*
X90392000Y-97040000D01*
X91694000Y-97028000D02*
X92456000Y-96266000D01*
X92456000Y-96266000D02*
X96520000Y-96266000D01*
X96520000Y-96266000D02*
X98204000Y-94582000D01*
X98204000Y-94582000D02*
X98204000Y-93726000D01*
X90404000Y-97028000D02*
X91694000Y-97028000D01*
X92964000Y-98044000D02*
X91948000Y-97028000D01*
X91948000Y-97028000D02*
X90404000Y-97028000D01*
X86614000Y-97028000D02*
X86106000Y-97536000D01*
X87904000Y-97028000D02*
X86614000Y-97028000D01*
X86106000Y-99028000D02*
X86392000Y-99314000D01*
X86106000Y-97536000D02*
X86106000Y-99028000D01*
X97028000Y-92456000D02*
X96774000Y-92710000D01*
X96774000Y-92710000D02*
X96774000Y-94488000D01*
X96774000Y-94488000D02*
X95758000Y-95504000D01*
X95758000Y-95504000D02*
X88646000Y-95504000D01*
X88646000Y-95504000D02*
X87904000Y-96246000D01*
X87904000Y-96246000D02*
X87904000Y-97028000D01*
X98204000Y-92456000D02*
X97028000Y-92456000D01*
X93058000Y-103886000D02*
X88646000Y-103886000D01*
X87376000Y-106680000D02*
X87356000Y-106680000D01*
X87376000Y-105156000D02*
X87376000Y-106680000D01*
X88646000Y-103886000D02*
X87376000Y-105156000D01*
X87356000Y-113526000D02*
X87344000Y-113538000D01*
X87356000Y-110744000D02*
X87356000Y-113526000D01*
X86106000Y-93726000D02*
X83566000Y-96266000D01*
X83566000Y-96266000D02*
X83566000Y-102108000D01*
X83566000Y-102108000D02*
X87356000Y-105898000D01*
X87356000Y-106934000D02*
X87356000Y-110744000D01*
X87356000Y-105898000D02*
X87356000Y-106680000D01*
X87356000Y-106680000D02*
X87356000Y-106934000D01*
X92804000Y-93726000D02*
X86106000Y-93726000D01*
X87356000Y-108986000D02*
X87356000Y-110744000D01*
X86360000Y-107188000D02*
X86614000Y-106934000D01*
X86614000Y-106934000D02*
X87356000Y-106934000D01*
X83344000Y-111982000D02*
X83344000Y-113538000D01*
X84582000Y-110744000D02*
X83344000Y-111982000D01*
X84856000Y-110744000D02*
X84582000Y-110744000D01*
X84856000Y-104668000D02*
X82804000Y-102616000D01*
X82804000Y-102616000D02*
X82804000Y-96012000D01*
X82804000Y-96012000D02*
X86360000Y-92456000D01*
X86360000Y-92456000D02*
X92804000Y-92456000D01*
X84856000Y-110744000D02*
X84856000Y-104668000D01*
X84856000Y-110470000D02*
X84856000Y-110744000D01*
X86106000Y-109220000D02*
X84856000Y-110470000D01*
X98458000Y-102616000D02*
X97282000Y-102616000D01*
X97282000Y-102616000D02*
X96774000Y-102108000D01*
X87122000Y-84328000D02*
X87598000Y-84804000D01*
X87598000Y-84804000D02*
X87598000Y-86614000D01*
X86086000Y-84328000D02*
X87122000Y-84328000D01*
X89662000Y-86614000D02*
X87598000Y-86614000D01*
X89662000Y-86614000D02*
X90170000Y-86106000D01*
X92804000Y-86106000D02*
X90170000Y-86106000D01*
X86086000Y-83800000D02*
X86086000Y-84328000D01*
X85090000Y-82804000D02*
X86086000Y-83800000D01*
X83586000Y-86602000D02*
X83598000Y-86614000D01*
X83586000Y-84328000D02*
X83586000Y-86602000D01*
X83598000Y-88170000D02*
X83820000Y-88392000D01*
X86868000Y-88392000D02*
X89408000Y-88392000D01*
X83820000Y-88392000D02*
X86868000Y-88392000D01*
X89408000Y-88392000D02*
X90424000Y-87376000D01*
X90424000Y-87376000D02*
X92804000Y-87376000D01*
X83598000Y-86614000D02*
X83598000Y-88170000D01*
X86868000Y-89154000D02*
X86868000Y-88392000D01*
D26*
X90090000Y-77978000D02*
X87884000Y-77978000D01*
X90090000Y-76026000D02*
X90170000Y-75946000D01*
X90090000Y-77978000D02*
X90090000Y-76026000D01*
X90090000Y-77978000D02*
X90090000Y-80010000D01*
X90090000Y-80010000D02*
X87884000Y-80010000D01*
X90090000Y-81708000D02*
X90170000Y-81788000D01*
X90090000Y-80010000D02*
X90090000Y-81708000D01*
X92804000Y-88646000D02*
X90932000Y-88646000D01*
X92804000Y-91186000D02*
X90678000Y-91186000D01*
X95758000Y-88646000D02*
X95504000Y-88392000D01*
X98204000Y-88646000D02*
X95758000Y-88646000D01*
X96520000Y-91186000D02*
X98204000Y-91186000D01*
X96520000Y-91186000D02*
X95504000Y-92202000D01*
X95504000Y-93472000D02*
X95504000Y-92202000D01*
D27*
X96182000Y-72306000D02*
X95584000Y-71708000D01*
X95584000Y-71708000D02*
X94234000Y-71708000D01*
X97348000Y-72306000D02*
X96182000Y-72306000D01*
X94488000Y-100076000D02*
X95758000Y-101346000D01*
X94488000Y-102616000D02*
X93058000Y-102616000D01*
X94488000Y-102616000D02*
X95758000Y-101346000D01*
X93058000Y-100076000D02*
X94488000Y-100076000D01*
X98458000Y-101346000D02*
X95758000Y-101346000D01*
X97282000Y-103886000D02*
X95758000Y-102362000D01*
X95758000Y-102362000D02*
X95758000Y-101346000D01*
X98458000Y-103886000D02*
X97282000Y-103886000D01*
X98458000Y-107696000D02*
X100838000Y-107696000D01*
X101600000Y-106934000D02*
X101600000Y-105156000D01*
X100838000Y-107696000D02*
X101600000Y-106934000D01*
X93058000Y-107696000D02*
X96520000Y-107696000D01*
X93218000Y-108966000D02*
X93058000Y-108806000D01*
X93058000Y-108806000D02*
X93058000Y-107696000D01*
X98458000Y-106426000D02*
X99822000Y-106426000D01*
X100076000Y-101600000D02*
X101600000Y-100076000D01*
X100076000Y-106172000D02*
X100076000Y-101600000D01*
X99822000Y-106426000D02*
X100076000Y-106172000D01*
X93058000Y-106426000D02*
X96266000Y-106426000D01*
X96266000Y-106426000D02*
X96520000Y-106172000D01*
M02*
