G04 #@! TF.FileFunction,Legend,Bot*
%FSLAX46Y46*%
G04 Gerber Fmt 4.6, Leading zero omitted, Abs format (unit mm)*
G04 Created by KiCad (PCBNEW 0.201505220134+5676~23~ubuntu14.04.1-product) date Mon 25 May 2015 02:30:49 PM EDT*
%MOMM*%
G01*
G04 APERTURE LIST*
%ADD10C,0.100000*%
%ADD11C,0.203200*%
%ADD12C,0.150000*%
%ADD13R,1.500000X1.250000*%
%ADD14R,2.032000X2.032000*%
%ADD15O,2.032000X2.032000*%
%ADD16R,1.500000X1.300000*%
%ADD17R,4.200000X1.800000*%
%ADD18R,2.032000X1.727200*%
%ADD19O,2.032000X1.727200*%
%ADD20R,2.235200X2.235200*%
%ADD21C,2.000000*%
%ADD22O,2.200000X2.200000*%
G04 APERTURE END LIST*
D10*
D11*
X98406856Y-84736819D02*
X98406856Y-83720819D01*
X98164951Y-83720819D01*
X98019809Y-83769200D01*
X97923047Y-83865962D01*
X97874666Y-83962724D01*
X97826285Y-84156248D01*
X97826285Y-84301390D01*
X97874666Y-84494914D01*
X97923047Y-84591676D01*
X98019809Y-84688438D01*
X98164951Y-84736819D01*
X98406856Y-84736819D01*
X96955428Y-84736819D02*
X96955428Y-84204629D01*
X97003809Y-84107867D01*
X97100571Y-84059486D01*
X97294094Y-84059486D01*
X97390856Y-84107867D01*
X96955428Y-84688438D02*
X97052190Y-84736819D01*
X97294094Y-84736819D01*
X97390856Y-84688438D01*
X97439237Y-84591676D01*
X97439237Y-84494914D01*
X97390856Y-84398152D01*
X97294094Y-84349771D01*
X97052190Y-84349771D01*
X96955428Y-84301390D01*
X96519999Y-84688438D02*
X96423237Y-84736819D01*
X96229713Y-84736819D01*
X96132952Y-84688438D01*
X96084571Y-84591676D01*
X96084571Y-84543295D01*
X96132952Y-84446533D01*
X96229713Y-84398152D01*
X96374856Y-84398152D01*
X96471618Y-84349771D01*
X96519999Y-84253010D01*
X96519999Y-84204629D01*
X96471618Y-84107867D01*
X96374856Y-84059486D01*
X96229713Y-84059486D01*
X96132952Y-84107867D01*
X95310476Y-84204629D02*
X95165333Y-84253010D01*
X95116952Y-84301390D01*
X95068571Y-84398152D01*
X95068571Y-84543295D01*
X95116952Y-84640057D01*
X95165333Y-84688438D01*
X95262095Y-84736819D01*
X95649142Y-84736819D01*
X95649142Y-83720819D01*
X95310476Y-83720819D01*
X95213714Y-83769200D01*
X95165333Y-83817581D01*
X95116952Y-83914343D01*
X95116952Y-84011105D01*
X95165333Y-84107867D01*
X95213714Y-84156248D01*
X95310476Y-84204629D01*
X95649142Y-84204629D01*
X94487999Y-84736819D02*
X94584761Y-84688438D01*
X94633142Y-84591676D01*
X94633142Y-83720819D01*
X94100952Y-84736819D02*
X94100952Y-84059486D01*
X94100952Y-83720819D02*
X94149333Y-83769200D01*
X94100952Y-83817581D01*
X94052571Y-83769200D01*
X94100952Y-83720819D01*
X94100952Y-83817581D01*
X93617142Y-84059486D02*
X93617142Y-84736819D01*
X93617142Y-84156248D02*
X93568761Y-84107867D01*
X93471999Y-84059486D01*
X93326857Y-84059486D01*
X93230095Y-84107867D01*
X93181714Y-84204629D01*
X93181714Y-84736819D01*
X92697904Y-84736819D02*
X92697904Y-83720819D01*
X92601142Y-84349771D02*
X92310857Y-84736819D01*
X92310857Y-84059486D02*
X92697904Y-84446533D01*
X91875428Y-84736819D02*
X91875428Y-84059486D01*
X91875428Y-83720819D02*
X91923809Y-83769200D01*
X91875428Y-83817581D01*
X91827047Y-83769200D01*
X91875428Y-83720819D01*
X91875428Y-83817581D01*
X91391618Y-84059486D02*
X91391618Y-84736819D01*
X91391618Y-84156248D02*
X91343237Y-84107867D01*
X91246475Y-84059486D01*
X91101333Y-84059486D01*
X91004571Y-84107867D01*
X90956190Y-84204629D01*
X90956190Y-84736819D01*
X90472380Y-84059486D02*
X90472380Y-85075486D01*
X90472380Y-84107867D02*
X90375618Y-84059486D01*
X90182095Y-84059486D01*
X90085333Y-84107867D01*
X90036952Y-84156248D01*
X89988571Y-84253010D01*
X89988571Y-84543295D01*
X90036952Y-84640057D01*
X90085333Y-84688438D01*
X90182095Y-84736819D01*
X90375618Y-84736819D01*
X90472380Y-84688438D01*
X89117714Y-84059486D02*
X89117714Y-84736819D01*
X89553142Y-84059486D02*
X89553142Y-84591676D01*
X89504761Y-84688438D01*
X89407999Y-84736819D01*
X89262857Y-84736819D01*
X89166095Y-84688438D01*
X89117714Y-84640057D01*
X88779047Y-84059486D02*
X88391999Y-84059486D01*
X88633904Y-83720819D02*
X88633904Y-84591676D01*
X88585523Y-84688438D01*
X88488761Y-84736819D01*
X88391999Y-84736819D01*
X96157142Y-85346419D02*
X95818475Y-86362419D01*
X95479809Y-85346419D01*
X94754095Y-86314038D02*
X94850857Y-86362419D01*
X95044380Y-86362419D01*
X95141142Y-86314038D01*
X95189523Y-86217276D01*
X95189523Y-85830229D01*
X95141142Y-85733467D01*
X95044380Y-85685086D01*
X94850857Y-85685086D01*
X94754095Y-85733467D01*
X94705714Y-85830229D01*
X94705714Y-85926990D01*
X95189523Y-86023752D01*
X94270285Y-86362419D02*
X94270285Y-85685086D01*
X94270285Y-85878610D02*
X94221904Y-85781848D01*
X94173523Y-85733467D01*
X94076761Y-85685086D01*
X93980000Y-85685086D01*
X92335048Y-86362419D02*
X92915619Y-86362419D01*
X92625333Y-86362419D02*
X92625333Y-85346419D01*
X92722095Y-85491562D01*
X92818857Y-85588324D01*
X92915619Y-85636705D01*
X91899619Y-86265657D02*
X91851238Y-86314038D01*
X91899619Y-86362419D01*
X91948000Y-86314038D01*
X91899619Y-86265657D01*
X91899619Y-86362419D01*
X91222285Y-85346419D02*
X91125524Y-85346419D01*
X91028762Y-85394800D01*
X90980381Y-85443181D01*
X90932000Y-85539943D01*
X90883619Y-85733467D01*
X90883619Y-85975371D01*
X90932000Y-86168895D01*
X90980381Y-86265657D01*
X91028762Y-86314038D01*
X91125524Y-86362419D01*
X91222285Y-86362419D01*
X91319047Y-86314038D01*
X91367428Y-86265657D01*
X91415809Y-86168895D01*
X91464190Y-85975371D01*
X91464190Y-85733467D01*
X91415809Y-85539943D01*
X91367428Y-85443181D01*
X91319047Y-85394800D01*
X91222285Y-85346419D01*
X98539905Y-94488000D02*
X98636667Y-94439619D01*
X98781810Y-94439619D01*
X98926952Y-94488000D01*
X99023714Y-94584762D01*
X99072095Y-94681524D01*
X99120476Y-94875048D01*
X99120476Y-95020190D01*
X99072095Y-95213714D01*
X99023714Y-95310476D01*
X98926952Y-95407238D01*
X98781810Y-95455619D01*
X98685048Y-95455619D01*
X98539905Y-95407238D01*
X98491524Y-95358857D01*
X98491524Y-95020190D01*
X98685048Y-95020190D01*
X98612476Y-97318286D02*
X98612476Y-97995619D01*
X98854380Y-96931238D02*
X99096285Y-97656952D01*
X98467333Y-97656952D01*
X98310095Y-99519619D02*
X98793904Y-99519619D01*
X98842285Y-100003429D01*
X98793904Y-99955048D01*
X98697142Y-99906667D01*
X98455238Y-99906667D01*
X98358476Y-99955048D01*
X98310095Y-100003429D01*
X98261714Y-100100190D01*
X98261714Y-100342095D01*
X98310095Y-100438857D01*
X98358476Y-100487238D01*
X98455238Y-100535619D01*
X98697142Y-100535619D01*
X98793904Y-100487238D01*
X98842285Y-100438857D01*
X98890666Y-102313619D02*
X98261714Y-102313619D01*
X98600380Y-102700667D01*
X98455238Y-102700667D01*
X98358476Y-102749048D01*
X98310095Y-102797429D01*
X98261714Y-102894190D01*
X98261714Y-103136095D01*
X98310095Y-103232857D01*
X98358476Y-103281238D01*
X98455238Y-103329619D01*
X98745523Y-103329619D01*
X98842285Y-103281238D01*
X98890666Y-103232857D01*
X99350285Y-105204381D02*
X99301904Y-105156000D01*
X99205142Y-105107619D01*
X98963238Y-105107619D01*
X98866476Y-105156000D01*
X98818095Y-105204381D01*
X98769714Y-105301143D01*
X98769714Y-105397905D01*
X98818095Y-105543048D01*
X99398666Y-106123619D01*
X98769714Y-106123619D01*
D12*
X98052000Y-71286000D02*
X99052000Y-71286000D01*
X99052000Y-72986000D02*
X98052000Y-72986000D01*
X95004000Y-90844000D02*
X96004000Y-90844000D01*
X96004000Y-92544000D02*
X95004000Y-92544000D01*
X96258000Y-104228000D02*
X95258000Y-104228000D01*
X95258000Y-102528000D02*
X96258000Y-102528000D01*
X96866000Y-109107000D02*
X95666000Y-109107000D01*
X95666000Y-110857000D02*
X96866000Y-110857000D01*
X94396000Y-112889000D02*
X95596000Y-112889000D01*
X95596000Y-111139000D02*
X94396000Y-111139000D01*
X82328000Y-76114000D02*
X82328000Y-71714000D01*
X82328000Y-71714000D02*
X86328000Y-71714000D01*
X86328000Y-76114000D02*
X86328000Y-71714000D01*
X82328000Y-76114000D02*
X86328000Y-76114000D01*
X82328000Y-101514000D02*
X82328000Y-97114000D01*
X82328000Y-97114000D02*
X86328000Y-97114000D01*
X86328000Y-101514000D02*
X86328000Y-97114000D01*
X82328000Y-101514000D02*
X86328000Y-101514000D01*
X82328000Y-114214000D02*
X82328000Y-109814000D01*
X82328000Y-109814000D02*
X86328000Y-109814000D01*
X86328000Y-114214000D02*
X86328000Y-109814000D01*
X82328000Y-114214000D02*
X86328000Y-114214000D01*
X82328000Y-88814000D02*
X82328000Y-84414000D01*
X82328000Y-84414000D02*
X86328000Y-84414000D01*
X86328000Y-88814000D02*
X86328000Y-84414000D01*
X82328000Y-88814000D02*
X86328000Y-88814000D01*
D10*
G36*
X89746666Y-80941333D02*
X90508666Y-80941333D01*
X90901413Y-80931717D01*
X91159945Y-80904118D01*
X91268321Y-80860413D01*
X91270666Y-80851669D01*
X91322536Y-80801103D01*
X91355333Y-80814333D01*
X91388480Y-80917315D01*
X91414664Y-81165812D01*
X91432309Y-81536094D01*
X91439839Y-82004429D01*
X91440000Y-82089330D01*
X91441188Y-82566861D01*
X91447118Y-82900692D01*
X91461340Y-83116453D01*
X91487403Y-83239771D01*
X91528857Y-83296277D01*
X91589251Y-83311599D01*
X91609333Y-83312000D01*
X91664579Y-83305787D01*
X91706288Y-83273256D01*
X91736360Y-83193567D01*
X91756696Y-83045880D01*
X91769194Y-82809355D01*
X91775755Y-82463152D01*
X91778278Y-81986431D01*
X91778666Y-81454444D01*
X91778666Y-79596888D01*
X92071428Y-79570610D01*
X92364190Y-79544333D01*
X92064406Y-79184500D01*
X91860121Y-78964572D01*
X91688361Y-78855893D01*
X91494029Y-78824809D01*
X91475311Y-78824666D01*
X91186000Y-78824666D01*
X91186000Y-79756000D01*
X91186000Y-80687333D01*
X91011485Y-80512818D01*
X90949775Y-80442289D01*
X90905250Y-80355731D01*
X90875710Y-80227575D01*
X90858954Y-80032252D01*
X90852782Y-79744194D01*
X90854992Y-79337831D01*
X90863319Y-78791441D01*
X90889666Y-77244578D01*
X91134483Y-76923894D01*
X91495468Y-76580942D01*
X91932307Y-76371693D01*
X92410085Y-76301770D01*
X92893889Y-76376796D01*
X93307232Y-76573971D01*
X93529301Y-76740255D01*
X93697051Y-76923175D01*
X93817828Y-77148495D01*
X93898981Y-77441977D01*
X93947859Y-77829385D01*
X93971810Y-78336481D01*
X93978140Y-78926137D01*
X93978021Y-79446221D01*
X93973709Y-79824860D01*
X93961643Y-80089939D01*
X93938258Y-80269345D01*
X93899992Y-80390966D01*
X93843283Y-80482687D01*
X93768333Y-80568334D01*
X93628968Y-80736709D01*
X93558698Y-80856840D01*
X93556666Y-80869029D01*
X93635019Y-80900869D01*
X93844896Y-80925555D01*
X94148525Y-80939504D01*
X94318666Y-80941333D01*
X95080666Y-80941333D01*
X95080666Y-80687333D01*
X95059687Y-80507425D01*
X94960727Y-80441114D01*
X94826666Y-80433333D01*
X94572666Y-80433333D01*
X94572194Y-79057500D01*
X94567430Y-78444749D01*
X94549730Y-77969863D01*
X94513270Y-77601524D01*
X94452223Y-77308413D01*
X94360767Y-77059211D01*
X94233075Y-76822600D01*
X94125886Y-76657778D01*
X93739368Y-76226212D01*
X93276329Y-75929969D01*
X92763723Y-75770333D01*
X92228506Y-75748586D01*
X91697632Y-75866013D01*
X91198055Y-76123895D01*
X90778523Y-76498414D01*
X90603426Y-76714932D01*
X90471709Y-76931730D01*
X90377395Y-77177143D01*
X90314510Y-77479509D01*
X90277078Y-77867163D01*
X90259124Y-78368442D01*
X90254666Y-78982656D01*
X90254666Y-80433333D01*
X90000666Y-80433333D01*
X89820758Y-80454312D01*
X89754448Y-80553273D01*
X89746666Y-80687333D01*
X89746666Y-80941333D01*
X89746666Y-80941333D01*
X89746666Y-80941333D01*
G37*
X89746666Y-80941333D02*
X90508666Y-80941333D01*
X90901413Y-80931717D01*
X91159945Y-80904118D01*
X91268321Y-80860413D01*
X91270666Y-80851669D01*
X91322536Y-80801103D01*
X91355333Y-80814333D01*
X91388480Y-80917315D01*
X91414664Y-81165812D01*
X91432309Y-81536094D01*
X91439839Y-82004429D01*
X91440000Y-82089330D01*
X91441188Y-82566861D01*
X91447118Y-82900692D01*
X91461340Y-83116453D01*
X91487403Y-83239771D01*
X91528857Y-83296277D01*
X91589251Y-83311599D01*
X91609333Y-83312000D01*
X91664579Y-83305787D01*
X91706288Y-83273256D01*
X91736360Y-83193567D01*
X91756696Y-83045880D01*
X91769194Y-82809355D01*
X91775755Y-82463152D01*
X91778278Y-81986431D01*
X91778666Y-81454444D01*
X91778666Y-79596888D01*
X92071428Y-79570610D01*
X92364190Y-79544333D01*
X92064406Y-79184500D01*
X91860121Y-78964572D01*
X91688361Y-78855893D01*
X91494029Y-78824809D01*
X91475311Y-78824666D01*
X91186000Y-78824666D01*
X91186000Y-79756000D01*
X91186000Y-80687333D01*
X91011485Y-80512818D01*
X90949775Y-80442289D01*
X90905250Y-80355731D01*
X90875710Y-80227575D01*
X90858954Y-80032252D01*
X90852782Y-79744194D01*
X90854992Y-79337831D01*
X90863319Y-78791441D01*
X90889666Y-77244578D01*
X91134483Y-76923894D01*
X91495468Y-76580942D01*
X91932307Y-76371693D01*
X92410085Y-76301770D01*
X92893889Y-76376796D01*
X93307232Y-76573971D01*
X93529301Y-76740255D01*
X93697051Y-76923175D01*
X93817828Y-77148495D01*
X93898981Y-77441977D01*
X93947859Y-77829385D01*
X93971810Y-78336481D01*
X93978140Y-78926137D01*
X93978021Y-79446221D01*
X93973709Y-79824860D01*
X93961643Y-80089939D01*
X93938258Y-80269345D01*
X93899992Y-80390966D01*
X93843283Y-80482687D01*
X93768333Y-80568334D01*
X93628968Y-80736709D01*
X93558698Y-80856840D01*
X93556666Y-80869029D01*
X93635019Y-80900869D01*
X93844896Y-80925555D01*
X94148525Y-80939504D01*
X94318666Y-80941333D01*
X95080666Y-80941333D01*
X95080666Y-80687333D01*
X95059687Y-80507425D01*
X94960727Y-80441114D01*
X94826666Y-80433333D01*
X94572666Y-80433333D01*
X94572194Y-79057500D01*
X94567430Y-78444749D01*
X94549730Y-77969863D01*
X94513270Y-77601524D01*
X94452223Y-77308413D01*
X94360767Y-77059211D01*
X94233075Y-76822600D01*
X94125886Y-76657778D01*
X93739368Y-76226212D01*
X93276329Y-75929969D01*
X92763723Y-75770333D01*
X92228506Y-75748586D01*
X91697632Y-75866013D01*
X91198055Y-76123895D01*
X90778523Y-76498414D01*
X90603426Y-76714932D01*
X90471709Y-76931730D01*
X90377395Y-77177143D01*
X90314510Y-77479509D01*
X90277078Y-77867163D01*
X90259124Y-78368442D01*
X90254666Y-78982656D01*
X90254666Y-80433333D01*
X90000666Y-80433333D01*
X89820758Y-80454312D01*
X89754448Y-80553273D01*
X89746666Y-80687333D01*
X89746666Y-80941333D01*
X89746666Y-80941333D01*
G36*
X92216111Y-78888166D02*
X92369093Y-79157682D01*
X92558962Y-79391614D01*
X92745999Y-79546820D01*
X92858166Y-79585618D01*
X93048666Y-79586666D01*
X93048666Y-81237666D01*
X93050826Y-81825154D01*
X93058171Y-82262358D01*
X93072001Y-82568287D01*
X93093616Y-82761944D01*
X93124316Y-82862337D01*
X93161555Y-82888666D01*
X93305551Y-82851057D01*
X93330889Y-82832222D01*
X93353862Y-82729459D01*
X93372844Y-82494202D01*
X93385647Y-82163280D01*
X93390026Y-81837388D01*
X93398761Y-81367688D01*
X93423784Y-81041075D01*
X93468059Y-80831830D01*
X93517026Y-80734651D01*
X93580484Y-80591037D01*
X93620031Y-80345074D01*
X93638770Y-79970857D01*
X93641333Y-79697484D01*
X93641333Y-78824666D01*
X92914611Y-78824666D01*
X92591925Y-78831443D01*
X92349760Y-78849551D01*
X92224816Y-78875653D01*
X92216111Y-78888166D01*
X92216111Y-78888166D01*
X92216111Y-78888166D01*
G37*
X92216111Y-78888166D02*
X92369093Y-79157682D01*
X92558962Y-79391614D01*
X92745999Y-79546820D01*
X92858166Y-79585618D01*
X93048666Y-79586666D01*
X93048666Y-81237666D01*
X93050826Y-81825154D01*
X93058171Y-82262358D01*
X93072001Y-82568287D01*
X93093616Y-82761944D01*
X93124316Y-82862337D01*
X93161555Y-82888666D01*
X93305551Y-82851057D01*
X93330889Y-82832222D01*
X93353862Y-82729459D01*
X93372844Y-82494202D01*
X93385647Y-82163280D01*
X93390026Y-81837388D01*
X93398761Y-81367688D01*
X93423784Y-81041075D01*
X93468059Y-80831830D01*
X93517026Y-80734651D01*
X93580484Y-80591037D01*
X93620031Y-80345074D01*
X93638770Y-79970857D01*
X93641333Y-79697484D01*
X93641333Y-78824666D01*
X92914611Y-78824666D01*
X92591925Y-78831443D01*
X92349760Y-78849551D01*
X92224816Y-78875653D01*
X92216111Y-78888166D01*
X92216111Y-78888166D01*
G36*
X91948000Y-80687333D02*
X91954652Y-80827931D01*
X92001216Y-80903818D01*
X92127605Y-80934951D01*
X92373730Y-80941285D01*
X92456000Y-80941333D01*
X92737195Y-80938007D01*
X92888970Y-80914725D01*
X92951236Y-80851530D01*
X92963905Y-80728468D01*
X92964000Y-80687333D01*
X92957348Y-80546735D01*
X92910784Y-80470848D01*
X92784395Y-80439715D01*
X92538269Y-80433380D01*
X92456000Y-80433333D01*
X92174804Y-80436659D01*
X92023030Y-80459941D01*
X91960764Y-80523135D01*
X91948095Y-80646198D01*
X91948000Y-80687333D01*
X91948000Y-80687333D01*
X91948000Y-80687333D01*
G37*
X91948000Y-80687333D02*
X91954652Y-80827931D01*
X92001216Y-80903818D01*
X92127605Y-80934951D01*
X92373730Y-80941285D01*
X92456000Y-80941333D01*
X92737195Y-80938007D01*
X92888970Y-80914725D01*
X92951236Y-80851530D01*
X92963905Y-80728468D01*
X92964000Y-80687333D01*
X92957348Y-80546735D01*
X92910784Y-80470848D01*
X92784395Y-80439715D01*
X92538269Y-80433380D01*
X92456000Y-80433333D01*
X92174804Y-80436659D01*
X92023030Y-80459941D01*
X91960764Y-80523135D01*
X91948095Y-80646198D01*
X91948000Y-80687333D01*
X91948000Y-80687333D01*
G36*
X94996000Y-78613000D02*
X95002607Y-78715498D01*
X95044781Y-78778054D01*
X95156045Y-78810527D01*
X95369926Y-78822777D01*
X95715666Y-78824666D01*
X96064163Y-78822723D01*
X96276852Y-78810319D01*
X96387260Y-78777594D01*
X96428912Y-78714688D01*
X96435333Y-78613000D01*
X96428726Y-78510501D01*
X96386552Y-78447945D01*
X96275288Y-78415472D01*
X96061407Y-78403222D01*
X95715666Y-78401333D01*
X95367170Y-78403276D01*
X95154481Y-78415680D01*
X95044073Y-78448405D01*
X95002421Y-78511311D01*
X94996000Y-78613000D01*
X94996000Y-78613000D01*
X94996000Y-78613000D01*
G37*
X94996000Y-78613000D02*
X95002607Y-78715498D01*
X95044781Y-78778054D01*
X95156045Y-78810527D01*
X95369926Y-78822777D01*
X95715666Y-78824666D01*
X96064163Y-78822723D01*
X96276852Y-78810319D01*
X96387260Y-78777594D01*
X96428912Y-78714688D01*
X96435333Y-78613000D01*
X96428726Y-78510501D01*
X96386552Y-78447945D01*
X96275288Y-78415472D01*
X96061407Y-78403222D01*
X95715666Y-78401333D01*
X95367170Y-78403276D01*
X95154481Y-78415680D01*
X95044073Y-78448405D01*
X95002421Y-78511311D01*
X94996000Y-78613000D01*
X94996000Y-78613000D01*
G36*
X88392000Y-78609575D02*
X88398156Y-78713392D01*
X88438889Y-78776910D01*
X88547591Y-78810028D01*
X88757658Y-78822647D01*
X89102483Y-78824666D01*
X89117555Y-78824666D01*
X89467465Y-78822508D01*
X89680093Y-78810208D01*
X89787486Y-78779025D01*
X89821688Y-78720221D01*
X89816055Y-78634166D01*
X89790448Y-78540003D01*
X89722923Y-78481253D01*
X89578280Y-78447483D01*
X89321316Y-78428257D01*
X89090500Y-78419075D01*
X88748366Y-78408793D01*
X88541455Y-78413777D01*
X88435760Y-78443301D01*
X88397277Y-78506639D01*
X88392000Y-78609575D01*
X88392000Y-78609575D01*
X88392000Y-78609575D01*
G37*
X88392000Y-78609575D02*
X88398156Y-78713392D01*
X88438889Y-78776910D01*
X88547591Y-78810028D01*
X88757658Y-78822647D01*
X89102483Y-78824666D01*
X89117555Y-78824666D01*
X89467465Y-78822508D01*
X89680093Y-78810208D01*
X89787486Y-78779025D01*
X89821688Y-78720221D01*
X89816055Y-78634166D01*
X89790448Y-78540003D01*
X89722923Y-78481253D01*
X89578280Y-78447483D01*
X89321316Y-78428257D01*
X89090500Y-78419075D01*
X88748366Y-78408793D01*
X88541455Y-78413777D01*
X88435760Y-78443301D01*
X88397277Y-78506639D01*
X88392000Y-78609575D01*
X88392000Y-78609575D01*
G36*
X93080815Y-78284771D02*
X93081821Y-78522164D01*
X93191451Y-78677390D01*
X93366728Y-78723412D01*
X93564674Y-78633193D01*
X93592952Y-78606952D01*
X93708763Y-78449082D01*
X93688014Y-78304323D01*
X93558587Y-78149253D01*
X93362921Y-78033335D01*
X93194403Y-78078124D01*
X93083341Y-78275023D01*
X93080815Y-78284771D01*
X93080815Y-78284771D01*
X93080815Y-78284771D01*
G37*
X93080815Y-78284771D02*
X93081821Y-78522164D01*
X93191451Y-78677390D01*
X93366728Y-78723412D01*
X93564674Y-78633193D01*
X93592952Y-78606952D01*
X93708763Y-78449082D01*
X93688014Y-78304323D01*
X93558587Y-78149253D01*
X93362921Y-78033335D01*
X93194403Y-78078124D01*
X93083341Y-78275023D01*
X93080815Y-78284771D01*
X93080815Y-78284771D01*
G36*
X91133481Y-78284771D02*
X91134488Y-78522164D01*
X91244118Y-78677390D01*
X91419394Y-78723412D01*
X91617340Y-78633193D01*
X91645619Y-78606952D01*
X91767358Y-78409894D01*
X91720580Y-78228025D01*
X91599613Y-78116188D01*
X91382970Y-78030940D01*
X91219019Y-78104582D01*
X91133481Y-78284771D01*
X91133481Y-78284771D01*
X91133481Y-78284771D01*
G37*
X91133481Y-78284771D02*
X91134488Y-78522164D01*
X91244118Y-78677390D01*
X91419394Y-78723412D01*
X91617340Y-78633193D01*
X91645619Y-78606952D01*
X91767358Y-78409894D01*
X91720580Y-78228025D01*
X91599613Y-78116188D01*
X91382970Y-78030940D01*
X91219019Y-78104582D01*
X91133481Y-78284771D01*
X91133481Y-78284771D01*
G36*
X94996000Y-78147333D02*
X96054333Y-78147333D01*
X97112666Y-78147333D01*
X97112666Y-77893333D01*
X97112666Y-77639333D01*
X96054333Y-77639333D01*
X94996000Y-77639333D01*
X94996000Y-77893333D01*
X94996000Y-78147333D01*
X94996000Y-78147333D01*
X94996000Y-78147333D01*
G37*
X94996000Y-78147333D02*
X96054333Y-78147333D01*
X97112666Y-78147333D01*
X97112666Y-77893333D01*
X97112666Y-77639333D01*
X96054333Y-77639333D01*
X94996000Y-77639333D01*
X94996000Y-77893333D01*
X94996000Y-78147333D01*
X94996000Y-78147333D01*
G36*
X87672333Y-78105000D02*
X88711152Y-78128785D01*
X89157555Y-78135854D01*
X89462294Y-78131178D01*
X89652797Y-78112091D01*
X89756489Y-78075925D01*
X89799710Y-78022952D01*
X89815891Y-77829626D01*
X89799710Y-77763714D01*
X89753349Y-77708737D01*
X89646386Y-77673386D01*
X89451395Y-77654994D01*
X89140951Y-77650896D01*
X88711152Y-77657880D01*
X87672333Y-77681666D01*
X87672333Y-77893333D01*
X87672333Y-78105000D01*
X87672333Y-78105000D01*
X87672333Y-78105000D01*
G37*
X87672333Y-78105000D02*
X88711152Y-78128785D01*
X89157555Y-78135854D01*
X89462294Y-78131178D01*
X89652797Y-78112091D01*
X89756489Y-78075925D01*
X89799710Y-78022952D01*
X89815891Y-77829626D01*
X89799710Y-77763714D01*
X89753349Y-77708737D01*
X89646386Y-77673386D01*
X89451395Y-77654994D01*
X89140951Y-77650896D01*
X88711152Y-77657880D01*
X87672333Y-77681666D01*
X87672333Y-77893333D01*
X87672333Y-78105000D01*
X87672333Y-78105000D01*
G36*
X94879890Y-77093692D02*
X94895753Y-77239952D01*
X94966835Y-77357240D01*
X95027041Y-77378558D01*
X95155116Y-77353213D01*
X95390035Y-77294313D01*
X95624309Y-77230391D01*
X95941017Y-77128054D01*
X96111189Y-77032647D01*
X96155706Y-76925710D01*
X96105850Y-76804755D01*
X95983863Y-76755236D01*
X95724409Y-76780629D01*
X95322624Y-76881761D01*
X94939072Y-77003078D01*
X94879890Y-77093692D01*
X94879890Y-77093692D01*
X94879890Y-77093692D01*
G37*
X94879890Y-77093692D02*
X94895753Y-77239952D01*
X94966835Y-77357240D01*
X95027041Y-77378558D01*
X95155116Y-77353213D01*
X95390035Y-77294313D01*
X95624309Y-77230391D01*
X95941017Y-77128054D01*
X96111189Y-77032647D01*
X96155706Y-76925710D01*
X96105850Y-76804755D01*
X95983863Y-76755236D01*
X95724409Y-76780629D01*
X95322624Y-76881761D01*
X94939072Y-77003078D01*
X94879890Y-77093692D01*
X94879890Y-77093692D01*
G36*
X88654949Y-76793774D02*
X88661278Y-76893838D01*
X88713921Y-77012612D01*
X88855545Y-77110074D01*
X89121464Y-77208499D01*
X89196333Y-77231355D01*
X89499671Y-77320753D01*
X89680368Y-77367197D01*
X89777944Y-77376498D01*
X89831918Y-77354469D01*
X89859555Y-77328888D01*
X89909940Y-77202787D01*
X89916000Y-77134928D01*
X89854541Y-77036270D01*
X89658033Y-76939721D01*
X89372936Y-76852705D01*
X89022297Y-76762829D01*
X88805153Y-76721927D01*
X88692404Y-76731681D01*
X88654949Y-76793774D01*
X88654949Y-76793774D01*
X88654949Y-76793774D01*
G37*
X88654949Y-76793774D02*
X88661278Y-76893838D01*
X88713921Y-77012612D01*
X88855545Y-77110074D01*
X89121464Y-77208499D01*
X89196333Y-77231355D01*
X89499671Y-77320753D01*
X89680368Y-77367197D01*
X89777944Y-77376498D01*
X89831918Y-77354469D01*
X89859555Y-77328888D01*
X89909940Y-77202787D01*
X89916000Y-77134928D01*
X89854541Y-77036270D01*
X89658033Y-76939721D01*
X89372936Y-76852705D01*
X89022297Y-76762829D01*
X88805153Y-76721927D01*
X88692404Y-76731681D01*
X88654949Y-76793774D01*
X88654949Y-76793774D01*
G36*
X94602382Y-76487869D02*
X94661253Y-76634380D01*
X94772048Y-76707879D01*
X94776757Y-76708000D01*
X94885905Y-76666940D01*
X95107187Y-76555266D01*
X95407988Y-76390236D01*
X95741366Y-76197587D01*
X96077902Y-75992895D01*
X96353091Y-75814628D01*
X96538237Y-75682141D01*
X96604666Y-75615287D01*
X96547068Y-75505566D01*
X96487962Y-75446544D01*
X96402349Y-75420842D01*
X96255555Y-75454894D01*
X96023293Y-75558283D01*
X95681276Y-75740593D01*
X95535462Y-75822378D01*
X95195493Y-76016988D01*
X94909671Y-76184979D01*
X94710628Y-76306889D01*
X94633391Y-76360376D01*
X94602382Y-76487869D01*
X94602382Y-76487869D01*
X94602382Y-76487869D01*
G37*
X94602382Y-76487869D02*
X94661253Y-76634380D01*
X94772048Y-76707879D01*
X94776757Y-76708000D01*
X94885905Y-76666940D01*
X95107187Y-76555266D01*
X95407988Y-76390236D01*
X95741366Y-76197587D01*
X96077902Y-75992895D01*
X96353091Y-75814628D01*
X96538237Y-75682141D01*
X96604666Y-75615287D01*
X96547068Y-75505566D01*
X96487962Y-75446544D01*
X96402349Y-75420842D01*
X96255555Y-75454894D01*
X96023293Y-75558283D01*
X95681276Y-75740593D01*
X95535462Y-75822378D01*
X95195493Y-76016988D01*
X94909671Y-76184979D01*
X94710628Y-76306889D01*
X94633391Y-76360376D01*
X94602382Y-76487869D01*
X94602382Y-76487869D01*
G36*
X88246131Y-75607419D02*
X88255033Y-75675873D01*
X88344522Y-75748933D01*
X88544130Y-75881803D01*
X88817035Y-76052557D01*
X89126413Y-76239272D01*
X89435442Y-76420023D01*
X89707299Y-76572884D01*
X89905161Y-76675931D01*
X89988504Y-76708000D01*
X90096416Y-76655245D01*
X90153066Y-76606400D01*
X90242104Y-76484042D01*
X90254666Y-76440699D01*
X90185110Y-76377066D01*
X89995406Y-76250236D01*
X89714006Y-76078211D01*
X89369360Y-75878989D01*
X89346417Y-75866072D01*
X88957427Y-75651313D01*
X88687098Y-75514168D01*
X88509209Y-75444601D01*
X88397539Y-75432575D01*
X88325866Y-75468053D01*
X88320399Y-75473315D01*
X88246131Y-75607419D01*
X88246131Y-75607419D01*
X88246131Y-75607419D01*
G37*
X88246131Y-75607419D02*
X88255033Y-75675873D01*
X88344522Y-75748933D01*
X88544130Y-75881803D01*
X88817035Y-76052557D01*
X89126413Y-76239272D01*
X89435442Y-76420023D01*
X89707299Y-76572884D01*
X89905161Y-76675931D01*
X89988504Y-76708000D01*
X90096416Y-76655245D01*
X90153066Y-76606400D01*
X90242104Y-76484042D01*
X90254666Y-76440699D01*
X90185110Y-76377066D01*
X89995406Y-76250236D01*
X89714006Y-76078211D01*
X89369360Y-75878989D01*
X89346417Y-75866072D01*
X88957427Y-75651313D01*
X88687098Y-75514168D01*
X88509209Y-75444601D01*
X88397539Y-75432575D01*
X88325866Y-75468053D01*
X88320399Y-75473315D01*
X88246131Y-75607419D01*
X88246131Y-75607419D01*
G36*
X94165717Y-75977920D02*
X94237741Y-76082385D01*
X94260664Y-76102328D01*
X94349983Y-76122716D01*
X94485564Y-76049921D01*
X94691963Y-75868185D01*
X94813804Y-75747358D01*
X95037094Y-75516654D01*
X95155890Y-75371229D01*
X95186446Y-75277646D01*
X95145018Y-75202466D01*
X95099815Y-75158995D01*
X95008852Y-75092028D01*
X94920553Y-75091996D01*
X94798146Y-75176346D01*
X94604855Y-75362523D01*
X94546675Y-75421408D01*
X94307670Y-75677226D01*
X94184855Y-75852798D01*
X94165717Y-75977920D01*
X94165717Y-75977920D01*
X94165717Y-75977920D01*
G37*
X94165717Y-75977920D02*
X94237741Y-76082385D01*
X94260664Y-76102328D01*
X94349983Y-76122716D01*
X94485564Y-76049921D01*
X94691963Y-75868185D01*
X94813804Y-75747358D01*
X95037094Y-75516654D01*
X95155890Y-75371229D01*
X95186446Y-75277646D01*
X95145018Y-75202466D01*
X95099815Y-75158995D01*
X95008852Y-75092028D01*
X94920553Y-75091996D01*
X94798146Y-75176346D01*
X94604855Y-75362523D01*
X94546675Y-75421408D01*
X94307670Y-75677226D01*
X94184855Y-75852798D01*
X94165717Y-75977920D01*
X94165717Y-75977920D01*
G36*
X89617231Y-75233282D02*
X89651305Y-75339687D01*
X89775729Y-75498680D01*
X90008461Y-75740287D01*
X90009562Y-75741388D01*
X90257779Y-75978151D01*
X90421716Y-76101610D01*
X90526499Y-76127708D01*
X90574743Y-76100056D01*
X90656673Y-75985787D01*
X90650469Y-75866101D01*
X90541386Y-75712430D01*
X90314678Y-75496206D01*
X90220732Y-75414186D01*
X89977370Y-75211484D01*
X89824026Y-75109943D01*
X89727867Y-75094183D01*
X89656060Y-75148825D01*
X89655551Y-75149437D01*
X89617231Y-75233282D01*
X89617231Y-75233282D01*
X89617231Y-75233282D01*
G37*
X89617231Y-75233282D02*
X89651305Y-75339687D01*
X89775729Y-75498680D01*
X90008461Y-75740287D01*
X90009562Y-75741388D01*
X90257779Y-75978151D01*
X90421716Y-76101610D01*
X90526499Y-76127708D01*
X90574743Y-76100056D01*
X90656673Y-75985787D01*
X90650469Y-75866101D01*
X90541386Y-75712430D01*
X90314678Y-75496206D01*
X90220732Y-75414186D01*
X89977370Y-75211484D01*
X89824026Y-75109943D01*
X89727867Y-75094183D01*
X89656060Y-75148825D01*
X89655551Y-75149437D01*
X89617231Y-75233282D01*
X89617231Y-75233282D01*
G36*
X93599662Y-75543051D02*
X93654318Y-75617138D01*
X93654920Y-75617522D01*
X93807622Y-75683349D01*
X93922332Y-75624971D01*
X94010925Y-75501500D01*
X94206393Y-75180664D01*
X94408719Y-74833302D01*
X94599138Y-74493595D01*
X94758887Y-74195723D01*
X94869201Y-73973868D01*
X94911315Y-73862210D01*
X94911333Y-73861328D01*
X94843452Y-73757647D01*
X94697926Y-73674918D01*
X94617724Y-73659999D01*
X94563697Y-73728153D01*
X94448671Y-73908836D01*
X94293575Y-74166383D01*
X94119336Y-74465128D01*
X93946884Y-74769406D01*
X93797146Y-75043551D01*
X93729142Y-75174318D01*
X93622287Y-75409278D01*
X93599662Y-75543051D01*
X93599662Y-75543051D01*
X93599662Y-75543051D01*
G37*
X93599662Y-75543051D02*
X93654318Y-75617138D01*
X93654920Y-75617522D01*
X93807622Y-75683349D01*
X93922332Y-75624971D01*
X94010925Y-75501500D01*
X94206393Y-75180664D01*
X94408719Y-74833302D01*
X94599138Y-74493595D01*
X94758887Y-74195723D01*
X94869201Y-73973868D01*
X94911315Y-73862210D01*
X94911333Y-73861328D01*
X94843452Y-73757647D01*
X94697926Y-73674918D01*
X94617724Y-73659999D01*
X94563697Y-73728153D01*
X94448671Y-73908836D01*
X94293575Y-74166383D01*
X94119336Y-74465128D01*
X93946884Y-74769406D01*
X93797146Y-75043551D01*
X93729142Y-75174318D01*
X93622287Y-75409278D01*
X93599662Y-75543051D01*
X93599662Y-75543051D01*
G36*
X89916000Y-73855435D02*
X89955843Y-73975884D01*
X90061970Y-74197207D01*
X90214279Y-74484488D01*
X90392666Y-74802807D01*
X90577027Y-75117249D01*
X90747260Y-75392896D01*
X90883261Y-75594831D01*
X90964928Y-75688137D01*
X90972632Y-75690703D01*
X91115656Y-75647851D01*
X91178281Y-75613895D01*
X91215927Y-75553086D01*
X91196103Y-75434746D01*
X91109334Y-75234935D01*
X90946143Y-74929716D01*
X90818533Y-74705025D01*
X90620184Y-74361120D01*
X90448512Y-74065611D01*
X90323642Y-73853005D01*
X90269149Y-73762965D01*
X90150682Y-73701328D01*
X90004192Y-73732530D01*
X89918226Y-73833388D01*
X89916000Y-73855435D01*
X89916000Y-73855435D01*
X89916000Y-73855435D01*
G37*
X89916000Y-73855435D02*
X89955843Y-73975884D01*
X90061970Y-74197207D01*
X90214279Y-74484488D01*
X90392666Y-74802807D01*
X90577027Y-75117249D01*
X90747260Y-75392896D01*
X90883261Y-75594831D01*
X90964928Y-75688137D01*
X90972632Y-75690703D01*
X91115656Y-75647851D01*
X91178281Y-75613895D01*
X91215927Y-75553086D01*
X91196103Y-75434746D01*
X91109334Y-75234935D01*
X90946143Y-74929716D01*
X90818533Y-74705025D01*
X90620184Y-74361120D01*
X90448512Y-74065611D01*
X90323642Y-73853005D01*
X90269149Y-73762965D01*
X90150682Y-73701328D01*
X90004192Y-73732530D01*
X89918226Y-73833388D01*
X89916000Y-73855435D01*
X89916000Y-73855435D01*
G36*
X92882308Y-75279958D02*
X92948063Y-75342739D01*
X93091574Y-75385229D01*
X93221268Y-75385917D01*
X93250909Y-75366551D01*
X93289109Y-75261834D01*
X93356609Y-75042447D01*
X93433701Y-74773929D01*
X93510449Y-74476730D01*
X93535320Y-74299851D01*
X93510316Y-74203081D01*
X93464208Y-74161472D01*
X93317641Y-74107856D01*
X93267727Y-74110467D01*
X93216387Y-74193934D01*
X93137676Y-74390397D01*
X93048244Y-74649340D01*
X92964738Y-74920248D01*
X92903807Y-75152604D01*
X92882308Y-75279958D01*
X92882308Y-75279958D01*
X92882308Y-75279958D01*
G37*
X92882308Y-75279958D02*
X92948063Y-75342739D01*
X93091574Y-75385229D01*
X93221268Y-75385917D01*
X93250909Y-75366551D01*
X93289109Y-75261834D01*
X93356609Y-75042447D01*
X93433701Y-74773929D01*
X93510449Y-74476730D01*
X93535320Y-74299851D01*
X93510316Y-74203081D01*
X93464208Y-74161472D01*
X93317641Y-74107856D01*
X93267727Y-74110467D01*
X93216387Y-74193934D01*
X93137676Y-74390397D01*
X93048244Y-74649340D01*
X92964738Y-74920248D01*
X92903807Y-75152604D01*
X92882308Y-75279958D01*
X92882308Y-75279958D01*
G36*
X91244181Y-74211125D02*
X91250216Y-74328217D01*
X91301545Y-74543571D01*
X91367565Y-74784268D01*
X91450412Y-75076967D01*
X91515162Y-75294062D01*
X91549672Y-75395084D01*
X91551653Y-75397802D01*
X91635966Y-75389856D01*
X91750720Y-75372870D01*
X91934441Y-75343332D01*
X91766067Y-74735735D01*
X91681083Y-74438875D01*
X91611419Y-74213408D01*
X91570414Y-74102184D01*
X91567560Y-74098004D01*
X91473476Y-74095808D01*
X91368125Y-74121606D01*
X91283474Y-74154765D01*
X91244181Y-74211125D01*
X91244181Y-74211125D01*
X91244181Y-74211125D01*
G37*
X91244181Y-74211125D02*
X91250216Y-74328217D01*
X91301545Y-74543571D01*
X91367565Y-74784268D01*
X91450412Y-75076967D01*
X91515162Y-75294062D01*
X91549672Y-75395084D01*
X91551653Y-75397802D01*
X91635966Y-75389856D01*
X91750720Y-75372870D01*
X91934441Y-75343332D01*
X91766067Y-74735735D01*
X91681083Y-74438875D01*
X91611419Y-74213408D01*
X91570414Y-74102184D01*
X91567560Y-74098004D01*
X91473476Y-74095808D01*
X91368125Y-74121606D01*
X91283474Y-74154765D01*
X91244181Y-74211125D01*
X91244181Y-74211125D01*
G36*
X92202000Y-75268666D02*
X92413666Y-75268666D01*
X92625333Y-75268666D01*
X92625333Y-74210333D01*
X92625333Y-73152000D01*
X92413666Y-73152000D01*
X92202000Y-73152000D01*
X92202000Y-74210333D01*
X92202000Y-75268666D01*
X92202000Y-75268666D01*
X92202000Y-75268666D01*
G37*
X92202000Y-75268666D02*
X92413666Y-75268666D01*
X92625333Y-75268666D01*
X92625333Y-74210333D01*
X92625333Y-73152000D01*
X92413666Y-73152000D01*
X92202000Y-73152000D01*
X92202000Y-74210333D01*
X92202000Y-75268666D01*
X92202000Y-75268666D01*
D12*
X95861047Y-70715143D02*
X95908666Y-70762762D01*
X96051523Y-70810381D01*
X96146761Y-70810381D01*
X96289619Y-70762762D01*
X96384857Y-70667524D01*
X96432476Y-70572286D01*
X96480095Y-70381810D01*
X96480095Y-70238952D01*
X96432476Y-70048476D01*
X96384857Y-69953238D01*
X96289619Y-69858000D01*
X96146761Y-69810381D01*
X96051523Y-69810381D01*
X95908666Y-69858000D01*
X95861047Y-69905619D01*
X94908666Y-70810381D02*
X95480095Y-70810381D01*
X95194381Y-70810381D02*
X95194381Y-69810381D01*
X95289619Y-69953238D01*
X95384857Y-70048476D01*
X95480095Y-70096095D01*
X94289619Y-69810381D02*
X94194380Y-69810381D01*
X94099142Y-69858000D01*
X94051523Y-69905619D01*
X94003904Y-70000857D01*
X93956285Y-70191333D01*
X93956285Y-70429429D01*
X94003904Y-70619905D01*
X94051523Y-70715143D01*
X94099142Y-70762762D01*
X94194380Y-70810381D01*
X94289619Y-70810381D01*
X94384857Y-70762762D01*
X94432476Y-70715143D01*
X94480095Y-70619905D01*
X94527714Y-70429429D01*
X94527714Y-70191333D01*
X94480095Y-70000857D01*
X94432476Y-69905619D01*
X94384857Y-69858000D01*
X94289619Y-69810381D01*
X93003904Y-70810381D02*
X93575333Y-70810381D01*
X93289619Y-70810381D02*
X93289619Y-69810381D01*
X93384857Y-69953238D01*
X93480095Y-70048476D01*
X93575333Y-70096095D01*
X92051047Y-93067143D02*
X92098666Y-93114762D01*
X92241523Y-93162381D01*
X92336761Y-93162381D01*
X92479619Y-93114762D01*
X92574857Y-93019524D01*
X92622476Y-92924286D01*
X92670095Y-92733810D01*
X92670095Y-92590952D01*
X92622476Y-92400476D01*
X92574857Y-92305238D01*
X92479619Y-92210000D01*
X92336761Y-92162381D01*
X92241523Y-92162381D01*
X92098666Y-92210000D01*
X92051047Y-92257619D01*
X91670095Y-92257619D02*
X91622476Y-92210000D01*
X91527238Y-92162381D01*
X91289142Y-92162381D01*
X91193904Y-92210000D01*
X91146285Y-92257619D01*
X91098666Y-92352857D01*
X91098666Y-92448095D01*
X91146285Y-92590952D01*
X91717714Y-93162381D01*
X91098666Y-93162381D01*
X90479619Y-92162381D02*
X90384380Y-92162381D01*
X90289142Y-92210000D01*
X90241523Y-92257619D01*
X90193904Y-92352857D01*
X90146285Y-92543333D01*
X90146285Y-92781429D01*
X90193904Y-92971905D01*
X90241523Y-93067143D01*
X90289142Y-93114762D01*
X90384380Y-93162381D01*
X90479619Y-93162381D01*
X90574857Y-93114762D01*
X90622476Y-93067143D01*
X90670095Y-92971905D01*
X90717714Y-92781429D01*
X90717714Y-92543333D01*
X90670095Y-92352857D01*
X90622476Y-92257619D01*
X90574857Y-92210000D01*
X90479619Y-92162381D01*
X89193904Y-93162381D02*
X89765333Y-93162381D01*
X89479619Y-93162381D02*
X89479619Y-92162381D01*
X89574857Y-92305238D01*
X89670095Y-92400476D01*
X89765333Y-92448095D01*
X93067047Y-103989143D02*
X93114666Y-104036762D01*
X93257523Y-104084381D01*
X93352761Y-104084381D01*
X93495619Y-104036762D01*
X93590857Y-103941524D01*
X93638476Y-103846286D01*
X93686095Y-103655810D01*
X93686095Y-103512952D01*
X93638476Y-103322476D01*
X93590857Y-103227238D01*
X93495619Y-103132000D01*
X93352761Y-103084381D01*
X93257523Y-103084381D01*
X93114666Y-103132000D01*
X93067047Y-103179619D01*
X92686095Y-103179619D02*
X92638476Y-103132000D01*
X92543238Y-103084381D01*
X92305142Y-103084381D01*
X92209904Y-103132000D01*
X92162285Y-103179619D01*
X92114666Y-103274857D01*
X92114666Y-103370095D01*
X92162285Y-103512952D01*
X92733714Y-104084381D01*
X92114666Y-104084381D01*
X91495619Y-103084381D02*
X91400380Y-103084381D01*
X91305142Y-103132000D01*
X91257523Y-103179619D01*
X91209904Y-103274857D01*
X91162285Y-103465333D01*
X91162285Y-103703429D01*
X91209904Y-103893905D01*
X91257523Y-103989143D01*
X91305142Y-104036762D01*
X91400380Y-104084381D01*
X91495619Y-104084381D01*
X91590857Y-104036762D01*
X91638476Y-103989143D01*
X91686095Y-103893905D01*
X91733714Y-103703429D01*
X91733714Y-103465333D01*
X91686095Y-103274857D01*
X91638476Y-103179619D01*
X91590857Y-103132000D01*
X91495619Y-103084381D01*
X90828952Y-103084381D02*
X90209904Y-103084381D01*
X90543238Y-103465333D01*
X90400380Y-103465333D01*
X90305142Y-103512952D01*
X90257523Y-103560571D01*
X90209904Y-103655810D01*
X90209904Y-103893905D01*
X90257523Y-103989143D01*
X90305142Y-104036762D01*
X90400380Y-104084381D01*
X90686095Y-104084381D01*
X90781333Y-104036762D01*
X90828952Y-103989143D01*
X100433047Y-113482381D02*
X100766381Y-113006190D01*
X101004476Y-113482381D02*
X101004476Y-112482381D01*
X100623523Y-112482381D01*
X100528285Y-112530000D01*
X100480666Y-112577619D01*
X100433047Y-112672857D01*
X100433047Y-112815714D01*
X100480666Y-112910952D01*
X100528285Y-112958571D01*
X100623523Y-113006190D01*
X101004476Y-113006190D01*
X100052095Y-112577619D02*
X100004476Y-112530000D01*
X99909238Y-112482381D01*
X99671142Y-112482381D01*
X99575904Y-112530000D01*
X99528285Y-112577619D01*
X99480666Y-112672857D01*
X99480666Y-112768095D01*
X99528285Y-112910952D01*
X100099714Y-113482381D01*
X99480666Y-113482381D01*
X98861619Y-112482381D02*
X98766380Y-112482381D01*
X98671142Y-112530000D01*
X98623523Y-112577619D01*
X98575904Y-112672857D01*
X98528285Y-112863333D01*
X98528285Y-113101429D01*
X98575904Y-113291905D01*
X98623523Y-113387143D01*
X98671142Y-113434762D01*
X98766380Y-113482381D01*
X98861619Y-113482381D01*
X98956857Y-113434762D01*
X99004476Y-113387143D01*
X99052095Y-113291905D01*
X99099714Y-113101429D01*
X99099714Y-112863333D01*
X99052095Y-112672857D01*
X99004476Y-112577619D01*
X98956857Y-112530000D01*
X98861619Y-112482381D01*
X98147333Y-112577619D02*
X98099714Y-112530000D01*
X98004476Y-112482381D01*
X97766380Y-112482381D01*
X97671142Y-112530000D01*
X97623523Y-112577619D01*
X97575904Y-112672857D01*
X97575904Y-112768095D01*
X97623523Y-112910952D01*
X98194952Y-113482381D01*
X97575904Y-113482381D01*
X101703047Y-110180381D02*
X102036381Y-109704190D01*
X102274476Y-110180381D02*
X102274476Y-109180381D01*
X101893523Y-109180381D01*
X101798285Y-109228000D01*
X101750666Y-109275619D01*
X101703047Y-109370857D01*
X101703047Y-109513714D01*
X101750666Y-109608952D01*
X101798285Y-109656571D01*
X101893523Y-109704190D01*
X102274476Y-109704190D01*
X101322095Y-109275619D02*
X101274476Y-109228000D01*
X101179238Y-109180381D01*
X100941142Y-109180381D01*
X100845904Y-109228000D01*
X100798285Y-109275619D01*
X100750666Y-109370857D01*
X100750666Y-109466095D01*
X100798285Y-109608952D01*
X101369714Y-110180381D01*
X100750666Y-110180381D01*
X100131619Y-109180381D02*
X100036380Y-109180381D01*
X99941142Y-109228000D01*
X99893523Y-109275619D01*
X99845904Y-109370857D01*
X99798285Y-109561333D01*
X99798285Y-109799429D01*
X99845904Y-109989905D01*
X99893523Y-110085143D01*
X99941142Y-110132762D01*
X100036380Y-110180381D01*
X100131619Y-110180381D01*
X100226857Y-110132762D01*
X100274476Y-110085143D01*
X100322095Y-109989905D01*
X100369714Y-109799429D01*
X100369714Y-109561333D01*
X100322095Y-109370857D01*
X100274476Y-109275619D01*
X100226857Y-109228000D01*
X100131619Y-109180381D01*
X99464952Y-109180381D02*
X98845904Y-109180381D01*
X99179238Y-109561333D01*
X99036380Y-109561333D01*
X98941142Y-109608952D01*
X98893523Y-109656571D01*
X98845904Y-109751810D01*
X98845904Y-109989905D01*
X98893523Y-110085143D01*
X98941142Y-110132762D01*
X99036380Y-110180381D01*
X99322095Y-110180381D01*
X99417333Y-110132762D01*
X99464952Y-110085143D01*
X86518476Y-70866381D02*
X86518476Y-69866381D01*
X86137523Y-69866381D01*
X86042285Y-69914000D01*
X85994666Y-69961619D01*
X85947047Y-70056857D01*
X85947047Y-70199714D01*
X85994666Y-70294952D01*
X86042285Y-70342571D01*
X86137523Y-70390190D01*
X86518476Y-70390190D01*
X85518476Y-70866381D02*
X85518476Y-69866381D01*
X85280381Y-69866381D01*
X85137523Y-69914000D01*
X85042285Y-70009238D01*
X84994666Y-70104476D01*
X84947047Y-70294952D01*
X84947047Y-70437810D01*
X84994666Y-70628286D01*
X85042285Y-70723524D01*
X85137523Y-70818762D01*
X85280381Y-70866381D01*
X85518476Y-70866381D01*
X84566095Y-69961619D02*
X84518476Y-69914000D01*
X84423238Y-69866381D01*
X84185142Y-69866381D01*
X84089904Y-69914000D01*
X84042285Y-69961619D01*
X83994666Y-70056857D01*
X83994666Y-70152095D01*
X84042285Y-70294952D01*
X84613714Y-70866381D01*
X83994666Y-70866381D01*
X83375619Y-69866381D02*
X83280380Y-69866381D01*
X83185142Y-69914000D01*
X83137523Y-69961619D01*
X83089904Y-70056857D01*
X83042285Y-70247333D01*
X83042285Y-70485429D01*
X83089904Y-70675905D01*
X83137523Y-70771143D01*
X83185142Y-70818762D01*
X83280380Y-70866381D01*
X83375619Y-70866381D01*
X83470857Y-70818762D01*
X83518476Y-70771143D01*
X83566095Y-70675905D01*
X83613714Y-70485429D01*
X83613714Y-70247333D01*
X83566095Y-70056857D01*
X83518476Y-69961619D01*
X83470857Y-69914000D01*
X83375619Y-69866381D01*
X82089904Y-70866381D02*
X82661333Y-70866381D01*
X82375619Y-70866381D02*
X82375619Y-69866381D01*
X82470857Y-70009238D01*
X82566095Y-70104476D01*
X82661333Y-70152095D01*
X86518476Y-96266381D02*
X86518476Y-95266381D01*
X86137523Y-95266381D01*
X86042285Y-95314000D01*
X85994666Y-95361619D01*
X85947047Y-95456857D01*
X85947047Y-95599714D01*
X85994666Y-95694952D01*
X86042285Y-95742571D01*
X86137523Y-95790190D01*
X86518476Y-95790190D01*
X85518476Y-96266381D02*
X85518476Y-95266381D01*
X85280381Y-95266381D01*
X85137523Y-95314000D01*
X85042285Y-95409238D01*
X84994666Y-95504476D01*
X84947047Y-95694952D01*
X84947047Y-95837810D01*
X84994666Y-96028286D01*
X85042285Y-96123524D01*
X85137523Y-96218762D01*
X85280381Y-96266381D01*
X85518476Y-96266381D01*
X84613714Y-95266381D02*
X83994666Y-95266381D01*
X84328000Y-95647333D01*
X84185142Y-95647333D01*
X84089904Y-95694952D01*
X84042285Y-95742571D01*
X83994666Y-95837810D01*
X83994666Y-96075905D01*
X84042285Y-96171143D01*
X84089904Y-96218762D01*
X84185142Y-96266381D01*
X84470857Y-96266381D01*
X84566095Y-96218762D01*
X84613714Y-96171143D01*
X83375619Y-95266381D02*
X83280380Y-95266381D01*
X83185142Y-95314000D01*
X83137523Y-95361619D01*
X83089904Y-95456857D01*
X83042285Y-95647333D01*
X83042285Y-95885429D01*
X83089904Y-96075905D01*
X83137523Y-96171143D01*
X83185142Y-96218762D01*
X83280380Y-96266381D01*
X83375619Y-96266381D01*
X83470857Y-96218762D01*
X83518476Y-96171143D01*
X83566095Y-96075905D01*
X83613714Y-95885429D01*
X83613714Y-95647333D01*
X83566095Y-95456857D01*
X83518476Y-95361619D01*
X83470857Y-95314000D01*
X83375619Y-95266381D01*
X82089904Y-96266381D02*
X82661333Y-96266381D01*
X82375619Y-96266381D02*
X82375619Y-95266381D01*
X82470857Y-95409238D01*
X82566095Y-95504476D01*
X82661333Y-95552095D01*
X86518476Y-108966381D02*
X86518476Y-107966381D01*
X86137523Y-107966381D01*
X86042285Y-108014000D01*
X85994666Y-108061619D01*
X85947047Y-108156857D01*
X85947047Y-108299714D01*
X85994666Y-108394952D01*
X86042285Y-108442571D01*
X86137523Y-108490190D01*
X86518476Y-108490190D01*
X85518476Y-108966381D02*
X85518476Y-107966381D01*
X85280381Y-107966381D01*
X85137523Y-108014000D01*
X85042285Y-108109238D01*
X84994666Y-108204476D01*
X84947047Y-108394952D01*
X84947047Y-108537810D01*
X84994666Y-108728286D01*
X85042285Y-108823524D01*
X85137523Y-108918762D01*
X85280381Y-108966381D01*
X85518476Y-108966381D01*
X84089904Y-108299714D02*
X84089904Y-108966381D01*
X84328000Y-107918762D02*
X84566095Y-108633048D01*
X83947047Y-108633048D01*
X83375619Y-107966381D02*
X83280380Y-107966381D01*
X83185142Y-108014000D01*
X83137523Y-108061619D01*
X83089904Y-108156857D01*
X83042285Y-108347333D01*
X83042285Y-108585429D01*
X83089904Y-108775905D01*
X83137523Y-108871143D01*
X83185142Y-108918762D01*
X83280380Y-108966381D01*
X83375619Y-108966381D01*
X83470857Y-108918762D01*
X83518476Y-108871143D01*
X83566095Y-108775905D01*
X83613714Y-108585429D01*
X83613714Y-108347333D01*
X83566095Y-108156857D01*
X83518476Y-108061619D01*
X83470857Y-108014000D01*
X83375619Y-107966381D01*
X82089904Y-108966381D02*
X82661333Y-108966381D01*
X82375619Y-108966381D02*
X82375619Y-107966381D01*
X82470857Y-108109238D01*
X82566095Y-108204476D01*
X82661333Y-108252095D01*
X86518476Y-83566381D02*
X86518476Y-82566381D01*
X86137523Y-82566381D01*
X86042285Y-82614000D01*
X85994666Y-82661619D01*
X85947047Y-82756857D01*
X85947047Y-82899714D01*
X85994666Y-82994952D01*
X86042285Y-83042571D01*
X86137523Y-83090190D01*
X86518476Y-83090190D01*
X85518476Y-83566381D02*
X85518476Y-82566381D01*
X85280381Y-82566381D01*
X85137523Y-82614000D01*
X85042285Y-82709238D01*
X84994666Y-82804476D01*
X84947047Y-82994952D01*
X84947047Y-83137810D01*
X84994666Y-83328286D01*
X85042285Y-83423524D01*
X85137523Y-83518762D01*
X85280381Y-83566381D01*
X85518476Y-83566381D01*
X84042285Y-82566381D02*
X84518476Y-82566381D01*
X84566095Y-83042571D01*
X84518476Y-82994952D01*
X84423238Y-82947333D01*
X84185142Y-82947333D01*
X84089904Y-82994952D01*
X84042285Y-83042571D01*
X83994666Y-83137810D01*
X83994666Y-83375905D01*
X84042285Y-83471143D01*
X84089904Y-83518762D01*
X84185142Y-83566381D01*
X84423238Y-83566381D01*
X84518476Y-83518762D01*
X84566095Y-83471143D01*
X83375619Y-82566381D02*
X83280380Y-82566381D01*
X83185142Y-82614000D01*
X83137523Y-82661619D01*
X83089904Y-82756857D01*
X83042285Y-82947333D01*
X83042285Y-83185429D01*
X83089904Y-83375905D01*
X83137523Y-83471143D01*
X83185142Y-83518762D01*
X83280380Y-83566381D01*
X83375619Y-83566381D01*
X83470857Y-83518762D01*
X83518476Y-83471143D01*
X83566095Y-83375905D01*
X83613714Y-83185429D01*
X83613714Y-82947333D01*
X83566095Y-82756857D01*
X83518476Y-82661619D01*
X83470857Y-82614000D01*
X83375619Y-82566381D01*
X82089904Y-83566381D02*
X82661333Y-83566381D01*
X82375619Y-83566381D02*
X82375619Y-82566381D01*
X82470857Y-82709238D01*
X82566095Y-82804476D01*
X82661333Y-82852095D01*
%LPC*%
D13*
X99802000Y-72136000D03*
X97302000Y-72136000D03*
X96754000Y-91694000D03*
X94254000Y-91694000D03*
X94508000Y-103378000D03*
X97008000Y-103378000D03*
D14*
X97282000Y-69088000D03*
D15*
X99822000Y-69088000D03*
D16*
X94916000Y-109982000D03*
X97616000Y-109982000D03*
X96346000Y-112014000D03*
X93646000Y-112014000D03*
D17*
X81928000Y-73914000D03*
X86728000Y-73914000D03*
X81928000Y-99314000D03*
X86728000Y-99314000D03*
X81928000Y-112014000D03*
X86728000Y-112014000D03*
X81928000Y-86614000D03*
X86728000Y-86614000D03*
D18*
X101600000Y-105156000D03*
D19*
X101600000Y-102616000D03*
X101600000Y-100076000D03*
X101600000Y-97536000D03*
X101600000Y-94996000D03*
D20*
X88646000Y-69596000D03*
X101092000Y-84328000D03*
X97790000Y-80772000D03*
X88392000Y-116586000D03*
X80010000Y-69596000D03*
X80518000Y-94996000D03*
X80772000Y-107950000D03*
X80010000Y-82296000D03*
D21*
X99020000Y-114808000D03*
X96520000Y-114808000D03*
X94020000Y-114808000D03*
D22*
X101620000Y-111508000D03*
X91420000Y-111508000D03*
M02*
