G04 #@! TF.FileFunction,Soldermask,Top*
%FSLAX46Y46*%
G04 Gerber Fmt 4.6, Leading zero omitted, Abs format (unit mm)*
G04 Created by KiCad (PCBNEW 0.201505220134+5676~23~ubuntu14.04.1-product) date Mon 25 May 2015 02:30:49 PM EDT*
%MOMM*%
G01*
G04 APERTURE LIST*
%ADD10C,0.100000*%
%ADD11R,1.250000X1.500000*%
%ADD12R,1.500000X1.250000*%
%ADD13R,2.032000X2.032000*%
%ADD14O,2.032000X2.032000*%
%ADD15R,1.300000X1.500000*%
%ADD16R,1.500000X1.300000*%
%ADD17R,2.000000X1.700000*%
%ADD18R,0.650000X1.060000*%
%ADD19R,1.500000X0.600000*%
%ADD20R,2.032000X1.727200*%
%ADD21O,2.032000X1.727200*%
%ADD22R,2.235200X2.235200*%
%ADD23C,2.000000*%
%ADD24O,2.200000X2.200000*%
G04 APERTURE END LIST*
D10*
D11*
X101346000Y-74442000D03*
X101346000Y-76942000D03*
D12*
X84816000Y-73914000D03*
X82316000Y-73914000D03*
X87356000Y-110744000D03*
X84856000Y-110744000D03*
X86086000Y-84328000D03*
X83586000Y-84328000D03*
D13*
X97282000Y-69088000D03*
D14*
X99822000Y-69088000D03*
D15*
X94234000Y-71708000D03*
X94234000Y-69008000D03*
D16*
X92790000Y-80010000D03*
X90090000Y-80010000D03*
X90090000Y-77978000D03*
X92790000Y-77978000D03*
D17*
X84804000Y-76200000D03*
X80804000Y-76200000D03*
X90392000Y-99314000D03*
X86392000Y-99314000D03*
X87344000Y-113538000D03*
X83344000Y-113538000D03*
X87598000Y-86614000D03*
X83598000Y-86614000D03*
D18*
X99248000Y-72306000D03*
X98298000Y-72306000D03*
X97348000Y-72306000D03*
X97348000Y-74506000D03*
X99248000Y-74506000D03*
D19*
X92804000Y-86106000D03*
X92804000Y-87376000D03*
X92804000Y-88646000D03*
X92804000Y-89916000D03*
X92804000Y-91186000D03*
X92804000Y-92456000D03*
X92804000Y-93726000D03*
X98204000Y-93726000D03*
X98204000Y-92456000D03*
X98204000Y-91186000D03*
X98204000Y-89916000D03*
X98204000Y-88646000D03*
X98204000Y-87376000D03*
X98204000Y-86106000D03*
X98458000Y-107696000D03*
X98458000Y-106426000D03*
X98458000Y-105156000D03*
X98458000Y-103886000D03*
X98458000Y-102616000D03*
X98458000Y-101346000D03*
X98458000Y-100076000D03*
X93058000Y-100076000D03*
X93058000Y-101346000D03*
X93058000Y-102616000D03*
X93058000Y-103886000D03*
X93058000Y-105156000D03*
X93058000Y-106426000D03*
X93058000Y-107696000D03*
D12*
X90404000Y-97028000D03*
X87904000Y-97028000D03*
D20*
X101600000Y-105156000D03*
D21*
X101600000Y-102616000D03*
X101600000Y-100076000D03*
X101600000Y-97536000D03*
X101600000Y-94996000D03*
D22*
X88646000Y-69596000D03*
X101092000Y-84328000D03*
X97790000Y-80772000D03*
X88392000Y-116586000D03*
X80010000Y-69596000D03*
X80518000Y-94996000D03*
X80772000Y-107950000D03*
X80010000Y-82296000D03*
D23*
X99020000Y-114808000D03*
X96520000Y-114808000D03*
X94020000Y-114808000D03*
D24*
X101620000Y-111508000D03*
X91420000Y-111508000D03*
M02*
