M48
;DRILL file {KiCad 0.201505220134+5676~23~ubuntu14.04.1-product} date Mon 25 May 2015 02:30:54 PM EDT
;FORMAT={2:4/ absolute / inch / suppress leading zeros}
FMAT,2
INCH,TZ
T1C0.013
T2C0.018
T3C0.039
T4C0.040
T5C0.087
%
G90
G05
M72
T1
X33200Y-28300
X33500Y-32600
X33800Y-28000
X33900Y-38400
X33900Y-43000
X34000Y-42200
X34200Y-35100
X35500Y-33900
X36600Y-38600
X36700Y-42900
X37700Y-39900
X38000Y-41800
X38000Y-42400
X38100Y-40200
T2
X31000Y-28500
X31100Y-33500
X31100Y-38400
X31100Y-43400
X34600Y-30700
X34600Y-31500
X35500Y-29900
X35500Y-32200
X35700Y-35900
X35800Y-34900
X36300Y-44700
X36700Y-43400
X37300Y-30700
X37300Y-31500
X37300Y-35400
X37400Y-41400
X37600Y-34800
X37600Y-36800
X37900Y-41400
X39100Y-30000
X39600Y-35400
X39900Y-31100
X40200Y-28600
X40300Y-36600
T3
X37016Y-45200
X38000Y-45200
X38984Y-45200
T4
X31500Y-27400
X31500Y-32400
X31700Y-37400
X31800Y-42500
X34800Y-45900
X34900Y-27400
X38300Y-27200
X38500Y-31800
X39300Y-27200
X39800Y-33200
X40000Y-37400
X40000Y-38400
X40000Y-39400
X40000Y-40400
X40000Y-41400
T5
X35992Y-43901G85X35992Y-43901
G05
X40008Y-43901G85X40008Y-43901
G05
T0
M30
